# xmcd CD database file
#
# Track frame offsets:
#	150
#	15318
#	31528
#	53807
#	72368
#	90733
#	110153
#	129371
#	148917
#	161649
#	176898
#	193885
#	211615
#	230445
#
# Disc length: 3287 seconds
#
# Revision: 0
# Processed by: cddbd v1.4PL0 Copyright (c) Steve Scherf et al.
# Submitted via: CDex 1.50Beta7
#
DISCID=c00cd50e
DTITLE=ChooChoo Charlie Willams and Baltimore Red Jones - Gutbucket Blues
DYEAR=1999
DGENRE=Blues
TTITLE0=Sunday Street
TTITLE1=Charlie Stone
TTITLE2=Kind Hearted Woman
TTITLE3=Divin' Duck
TTITLE4=Police Dog Blues
TTITLE5=Big Road
TTITLE6=Ramblin' On My Mind
TTITLE7=Tell Me Who's Been Here
TTITLE8=Cat Man Blues
TTITLE9=Come In My Kitchen
TTITLE10=Solid Gone
TTITLE11=Crossroads
TTITLE12=M&O Blies
TTITLE13=Long Tall Mama
EXTD=YEAR: 1999
EXTT0=
EXTT1=
EXTT2=
EXTT3=
EXTT4=
EXTT5=
EXTT6=
EXTT7=
EXTT8=
EXTT9=
EXTT10=
EXTT11=
EXTT12=
EXTT13=
PLAYORDER=
